<!DOCTYPE svg PUBLIC "-//W3C//DTD SVG 1.1//EN" "http://www.w3.org/Graphics/SVG/1.1/DTD/svg11.dtd">
<!-- Uploaded to: SVG Repo, www.svgrepo.com, Transformed by: SVG Repo Mixer Tools -->
<svg fill="#ffffff" width="800px" height="800px" viewBox="0 0 256 256" id="Flat" xmlns="http://www.w3.org/2000/svg">
<g id="SVGRepo_bgCarrier" stroke-width="0"/>
<g id="SVGRepo_tracerCarrier" stroke-linecap="round" stroke-linejoin="round"/>
<g id="SVGRepo_iconCarrier"> <path d="M248,124H236V88a12.01375,12.01375,0,0,0-12-12H204V64a12.01375,12.01375,0,0,0-12-12H168a12.01375,12.01375,0,0,0-12,12v60H100V64A12.01375,12.01375,0,0,0,88,52H64A12.01375,12.01375,0,0,0,52,64V76H32A12.01375,12.01375,0,0,0,20,88v36H8a4,4,0,0,0,0,8H20v36a12.01375,12.01375,0,0,0,12,12H52v12a12.01375,12.01375,0,0,0,12,12H88a12.01375,12.01375,0,0,0,12-12V132h56v60a12.01375,12.01375,0,0,0,12,12h24a12.01375,12.01375,0,0,0,12-12V180h20a12.01375,12.01375,0,0,0,12-12V132h12a4,4,0,0,0,0-8ZM32,172a4.00458,4.00458,0,0,1-4-4V88a4.00458,4.00458,0,0,1,4-4H52v88Zm60,20a4.00458,4.00458,0,0,1-4,4H64a4.00458,4.00458,0,0,1-4-4V64a4.00458,4.00458,0,0,1,4-4H88a4.00458,4.00458,0,0,1,4,4Zm104,0a4.00458,4.00458,0,0,1-4,4H168a4.00458,4.00458,0,0,1-4-4V64a4.00458,4.00458,0,0,1,4-4h24a4.00458,4.00458,0,0,1,4,4Zm32-24a4.00458,4.00458,0,0,1-4,4H204V84h20a4.00458,4.00458,0,0,1,4,4Z"/> </g>
</svg>